# xmcd
#
# Track frame offsets: 
#        150
#        13295
#        28323
#        40228
#        50448
#        64918
#        74630
#        85573
#        100600
#        110835
#        123350
#        134530
#        148350
#        160213
#
# Disc length: 2306 seconds
#
# Revision: 2
# Processed by: cddbd v1.5.2PL0 Copyright (c) Steve Scherf et al.
# Submitted via: ExactAudioCopyFreeDBPlugin 1.0
#
DISCID=d309000e
DTITLE=Erma Franklin - Golden Classics
DYEAR=1993
DGENRE=Soul
TTITLE0=Big Boss Man
TTITLE1=Didn't Catch the Dog's Bone
TTITLE2=Piece of My Heart
TTITLE3=Baby, What You Want Me to Do
TTITLE4=Open Up Your Soul
TTITLE5=Abracadabra
TTITLE6=I'm Just Not Ready for Love
TTITLE7=(Don't Have) The Right to Cry
TTITLE8=It's Over
TTITLE9=Never Let Me Go
TTITLE10=Each Night I Cry
TTITLE11=Saving My Love for You
TTITLE12=Pledging My Love
TTITLE13=Detour Ahead
EXTD=
EXTT0=
EXTT1=
EXTT2=
EXTT3=
EXTT4=
EXTT5=
EXTT6=
EXTT7=
EXTT8=
EXTT9=
EXTT10=
EXTT11=
EXTT12=
EXTT13=
PLAYORDER=
